<?xml version="1.0" encoding="UTF-8"?>
<svg version="1.1" xmlns="http://www.w3.org/2000/svg" width="512" height="512">
<path d="M0 0 C0.56783203 0.39960937 1.13566406 0.79921875 1.72070312 1.2109375 C8.07306998 5.72346508 13.98137861 10.60620955 19.703125 15.890625 C21.75935351 17.77899812 23.86286408 19.57980583 26 21.375 C62.47578226 53.40073683 84.74162364 105.5546307 87.87109375 153.39941406 C89.95181489 195.37638676 82.77976384 240.33035425 59 276 C59.28543658 279.64689307 61.03111595 281.39515026 63.56582642 283.89967346 C64.33118713 284.66337753 65.09654785 285.4270816 65.88510132 286.21392822 C67.15361435 287.45683624 67.15361435 287.45683624 68.44775391 288.72485352 C69.33398438 289.60509689 70.22021484 290.48534027 71.13330078 291.39225769 C73.06228401 293.30645785 74.99373921 295.21772576 76.92979813 297.12472725 C79.99851276 300.1480269 83.05515516 303.18333763 86.10995483 306.22068787 C93.70510769 313.76879309 101.31512229 321.30186814 108.92993164 328.83013916 C114.83798694 334.67127614 120.74138767 340.51695506 126.631019 346.37667602 C129.65875521 349.38802705 132.69558142 352.38978621 135.73989415 355.38437378 C138.09334197 357.70456178 140.43347836 360.03804594 142.77587891 362.36938477 C143.60940887 363.1838205 144.44293884 363.99825623 145.30172729 364.83737183 C156.24750015 375.79942004 162.41064803 387.21296054 163.1875 402.75 C162.89553828 416.5518267 157.90450437 427.8567851 148.34765625 437.8125 C138.59312054 446.90158485 126.51132806 451.38386696 113.16015625 451.15234375 C95.19229029 449.88517056 83.84480326 440.22997518 71.68237305 427.81420898 C70.37549782 426.4933152 70.37549782 426.4933152 69.04222107 425.14573669 C67.16858237 423.25124078 65.29683311 421.35507295 63.42789268 419.45596123 C60.47170522 416.45317289 57.50535619 413.46055856 54.5370636 410.46974182 C46.10530567 401.97148299 37.68249701 393.46448216 29.2800293 384.93725586 C24.62335044 380.21160684 19.95608658 375.49668746 15.27670509 370.79351479 C12.32217068 367.82278609 9.38125157 364.83939743 6.44964731 361.84604728 C4.20209692 359.55905616 1.93493261 357.29165233 -0.3293457 355.02124023 C-1.54116516 353.77235016 -1.54116516 353.77235016 -2.77746582 352.49822998 C-3.52716141 351.75389206 -4.27685699 351.00955414 -5.04927063 350.24266052 C-6.01841133 349.26132723 -6.01841133 349.26132723 -7.00713062 348.26016903 C-8.97662856 346.73444835 -8.97662856 346.73444835 -11.60507488 347.21749973 C-14.35123863 348.11476113 -16.391876 349.35721552 -18.8125 350.9375 C-41.40752676 364.38955139 -67.99705167 371.97193569 -94 375 C-94.74652832 375.0935376 -95.49305664 375.1870752 -96.26220703 375.28344727 C-148.59197226 381.2878909 -202.97134651 366.05324623 -244.48022461 333.68579102 C-248.70931343 330.31194892 -252.75086776 326.75284042 -256.7265625 323.0859375 C-258.8389424 321.1477745 -260.99998072 319.28976729 -263.1875 317.4375 C-267.19545209 313.93354188 -270.58859703 310.07687172 -274 306 C-274.76183594 305.12601562 -275.52367187 304.25203125 -276.30859375 303.3515625 C-311.90508245 261.92413572 -328.27572743 207.24479121 -324.53491211 153.07836914 C-323.08013289 134.98704776 -319.14454923 117.08079373 -313 100 C-312.72849121 99.24187012 -312.45698242 98.48374023 -312.17724609 97.70263672 C-305.35212753 78.98349597 -296.13775118 61.80351495 -284 46 C-283.33484375 45.1234375 -282.6696875 44.246875 -281.984375 43.34375 C-248.04855776 -0.24860061 -199.29446773 -28.36946553 -144.44140625 -35.4765625 C-93.74372734 -41.58988532 -41.84594183 -29.60163087 0 0 Z M-225 69 C-251.25137586 96.73194991 -265.86735394 135.01093923 -265.18359375 173.140625 C-263.16718362 215.52814004 -245.07939553 252.12535558 -214.15576172 281.078125 C-193.3484552 299.62796837 -167.2040047 310.32145614 -140 315 C-138.94941406 315.19335938 -137.89882812 315.38671875 -136.81640625 315.5859375 C-120.08792257 317.40090093 -102.376612 317.04756501 -86 313 C-84.85289551 312.72591309 -84.85289551 312.72591309 -83.68261719 312.44628906 C-63.89227307 307.56087375 -44.84261841 298.91078432 -29 286 C-28.43071777 285.54061035 -27.86143555 285.0812207 -27.27490234 284.60791016 C3.04289796 259.98256862 23.51805987 224.87324566 27.77294922 185.73876953 C31.20573311 144.33127523 19.18790851 105.50437425 -7.50683594 73.72021484 C-33.10008046 44.23525721 -69.36953372 26.32599289 -108.24023438 23.34155273 C-152.37469391 20.63252122 -194.13532077 37.6467253 -225 69 Z " fill="#FF8817" transform="translate(337,49)"/>
</svg>
